<?xml version="1.0" encoding="utf-8"?>
<!-- Generator: Adobe Illustrator 25.3.1, SVG Export Plug-In . SVG Version: 6.00 Build 0)  -->
<svg version="1.1" id="Layer_1" xmlns="http://www.w3.org/2000/svg" xmlns:xlink="http://www.w3.org/1999/xlink" x="0px" y="0px"
	 viewBox="0 0 240 240" style="enable-background:new 0 0 240 240;" xml:space="preserve">
<style type="text/css">
	.st0{fill:#333333;}
	.st1{fill:#FFFFFF;}
</style>
<rect class="st0" width="240" height="240"/>
<path class="st1" d="M16.9,120.3c0-36.1,21.3-60.9,54.2-60.9c33.4,0,54,23.5,54,60.3c0,36.1-21.3,60.9-54.3,60.9
	C37.6,180.6,16.9,157.1,16.9,120.3z M99.3,120c0-32.6-9-58.3-28.4-58.3c-19.7,0-28.2,24.8-28.2,58.3c0,32.6,8.9,58.3,28.4,58.3
	S99.3,153.5,99.3,120z"/>
<path class="st1" d="M222.4,88.7h-1c-9.8-19.5-16.4-24.8-30.6-24.8h-3.9v93.8c0,11.9,0.6,20,11.6,20v1h-47.1v-1
	c11,0,11.6-8.1,11.6-20V63.9h-3.9c-14,0-20.8,5.3-30.6,24.8h-1l2.4-27.4h89.9L222.4,88.7z"/>
</svg>
